<svg width="3881" height="706" xmlns="http://www.w3.org/2000/svg" xmlns:xlink="http://www.w3.org/1999/xlink" xml:space="preserve" overflow="hidden"><g transform="translate(-125 -2133)"><path d="M2890.98 2604.48C2893.08 2617.07 2884.69 2620.92 2873.51 2620.92 2843.08 2620.92 2812.58 2620.98 2782.02 2621.09 2770.29 2621.13 2764.83 2615.38 2765.66 2603.83 2765.75 2602.62 2765.19 2602.01 2763.97 2602.01 2636.26 2602.03 2508.57 2602.02 2380.9 2601.97 2351.02 2601.97 2306.98 2600.5 2269.95 2601.36 2212.46 2602.66 2177.5 2616.86 2148.07 2665.72 2103.09 2740.22 2031.58 2801.59 1942.46 2811.49 1934.24 2812.38 1911.32 2812.93 1873.74 2813.14 1335.25 2815.85 796.668 2813.83 258.186 2812.9 176.667 2812.73 147.34 2768.27 140.085 2692.05 130.355 2589.74 134 2488.49 134.997 2357.91 135.317 2317.55 137.758 2279.84 142.32 2244.8 151.466 2174.63 184.265 2138.7 257.91 2138.5 803.888 2137.09 1349.97 2134.89 1895.91 2138.36 1927.29 2138.56 1950.11 2140.12 1964.36 2143.03 2037.39 2158.02 2098.56 2210.21 2138.3 2271.72 2143.02 2279.03 2147.81 2286.32 2152.67 2293.58 2173.51 2324.7 2205.93 2346.01 2242.85 2348.9 2258.03 2350.09 2287.13 2350.56 2330.15 2350.31 2474.69 2349.53 2619.23 2349.17 2763.77 2349.21 2764.89 2349.21 2765.43 2348.65 2765.38 2347.53 2764.81 2335.98 2770.94 2330.23 2783.78 2330.3 2815.94 2330.53 2848.1 2330.98 2880.25 2331.64 2891.43 2331.88 2890.33 2338.93 2890.4 2347.22 2890.42 2348.52 2891.08 2349.18 2892.39 2349.18 2913.84 2349.31 2935.23 2349.69 2956.55 2350.31 2979.72 2351 2984.88 2406.28 2985.77 2424.13 2987.32 2455.14 2994.57 2587.57 2961.05 2599.77 2958.21 2600.81 2954.02 2601.28 2948.5 2601.18 2929.77 2600.93 2911.12 2601.38 2892.53 2602.53 2891.29 2602.62 2890.77 2603.27 2890.98 2604.48Z" stroke="#E69138" stroke-width="6.875" stroke-miterlimit="8" fill="#FFFFFF" fill-rule="evenodd"/><text fill="#E69138" font-family="Luckiest Guy,Luckiest Guy_MSFontService,sans-serif" font-weight="400" font-size="303" transform="matrix(1 0 0 1 307.493 2584)">Creativity</text><path d="M2610.88 2484.82 3181.62 2525.8" stroke="#4E7F8D" stroke-width="6.875" stroke-miterlimit="8" fill="none" fill-rule="evenodd"/><path d="M3181.62 2525.8 3186.66 2544.87" stroke="#7A7071" stroke-width="6.875" stroke-miterlimit="8" fill="none" fill-rule="evenodd"/><path d="M3186.66 2544.87C3185.69 2550.45 3187.47 2555.05 3192 2558.68 3192.98 2559.44 3193.47 2560.44 3193.48 2561.68 3193.49 2567.08 3195.14 2571.83 3198.41 2575.94" stroke="#97B8BD" stroke-width="6.875" stroke-miterlimit="8" fill="none" fill-rule="evenodd"/><path d="M3198.41 2575.94C3203.36 2581.09 3205.72 2587.33 3205.51 2594.67" stroke="#7598A2" stroke-width="6.875" stroke-miterlimit="8" fill="none" fill-rule="evenodd"/><path d="M3205.51 2594.67C3204.69 2598.47 3206.2 2600.57 3210.03 2600.98 3211.35 2601.12 3211.89 2601.83 3211.64 2603.13 3209.27 2614.81 3222.35 2622.38 3231.32 2625.18 3232.53 2625.56 3233.63 2625.34 3234.61 2624.51 3241.81 2618.42 3246.87 2610.94 3249.79 2602.07" stroke="#5B7D87" stroke-width="6.875" stroke-miterlimit="8" fill="none" fill-rule="evenodd"/><path d="M3249.79 2602.07 3253.05 2603.26C3254.39 2603.73 3254.97 2604.66 3254.78 2606.07L3252.84 2620.55C3252.69 2621.71 3253.17 2622.49 3254.29 2622.89 3276.98 2630.86 3300.02 2633.13 3323.39 2629.69" stroke="#87ABB3" stroke-width="6.875" stroke-miterlimit="8" fill="none" fill-rule="evenodd"/><path d="M3323.39 2629.69C3409.36 2641.56 3470.67 2650.36 3536.87 2687.27 3586.72 2715.05 3628.61 2761.02 3679.49 2781.95 3746.01 2809.27 3829.82 2809.17 3891.2 2769.15 3929.55 2744.15 3958.54 2710.32 3978.18 2667.65 4040.11 2532.97 3976.4 2371.7 3830.22 2329.98 3767.85 2312.18 3702.22 2328.71 3646.71 2358.81 3617.45 2374.65 3588.24 2397.14 3559.29 2408 3519.13 2423.04 3475.18 2427.21 3430.9 2433.07 3402.38 2436.86 3373.75 2437.56 3345.02 2435.16" stroke="#A1C670" stroke-width="6.875" stroke-miterlimit="8" fill="none" fill-rule="evenodd"/><path d="M3345.02 2435.16C3329.63 2424.62 3312.69 2419.89 3294.19 2420.96" stroke="#97B8BD" stroke-width="6.875" stroke-miterlimit="8" fill="none" fill-rule="evenodd"/><path d="M3294.19 2420.96C3287.35 2420.11 3276.87 2418.14 3262.73 2415.04 3256.19 2413.62 3251.37 2415.83 3248.27 2421.68" stroke="#87ABB3" stroke-width="6.875" stroke-miterlimit="8" fill="none" fill-rule="evenodd"/><path d="M3248.27 2421.68 3228.35 2436.03C3227.43 2436.73 3226.79 2437.62 3226.44 2438.72 3221.1 2456.34 3214.75 2472.95 3207.41 2488.56" stroke="#5B7D87" stroke-width="6.875" stroke-miterlimit="8" fill="none" fill-rule="evenodd"/><path d="M3207.41 2488.56 3188.69 2489.29C3186.43 2489.37 3184.66 2491.26 3184.74 2493.52 3184.74 2493.66 3184.76 2493.8 3184.78 2493.94 3185.13 2496.4 3184.64 2499.02 3183.3 2501.8" stroke="#7A7071" stroke-width="6.875" stroke-miterlimit="8" fill="none" fill-rule="evenodd"/><path d="M3183.3 2501.8 2612.74 2458.25" stroke="#4E7F8D" stroke-width="6.875" stroke-miterlimit="8" fill="none" fill-rule="evenodd"/><path d="M3183.3 2501.8C3185.36 2510.03 3184.8 2518.03 3181.62 2525.8" stroke="#664443" stroke-width="6.875" stroke-miterlimit="8" fill="none" fill-rule="evenodd"/><path d="M3207.41 2488.56C3208.71 2502.19 3209.73 2515.98 3210.48 2529.96 3211.02 2540.44 3208.95 2549.8 3207.17 2560.02 3206.98 2561.08 3206.37 2561.48 3205.33 2561.2L3200.9 2560.03" stroke="#73423D" stroke-width="6.875" stroke-miterlimit="8" fill="none" fill-rule="evenodd"/><path d="M3200.9 2560.03C3195.22 2556.48 3190.47 2551.43 3186.66 2544.87" stroke="#AF7D73" stroke-width="6.875" stroke-miterlimit="8" fill="none" fill-rule="evenodd"/><path d="M3200.9 2560.03 3201.7 2560.94" stroke="#908A89" stroke-width="6.875" stroke-miterlimit="8" fill="none" fill-rule="evenodd"/><path d="M3201.7 2560.94 3198.41 2575.94" stroke="#AAA5A4" stroke-width="6.875" stroke-miterlimit="8" fill="none" fill-rule="evenodd"/><path d="M3201.7 2560.94C3205.98 2562.83 3209.63 2565.66 3212.65 2569.43 3213.37 2570.33 3213.68 2571.35 3213.57 2572.49L3211.82 2593.15C3211.72 2594.15 3211.18 2594.73 3210.18 2594.89 3208.6 2595.17 3207.04 2595.1 3205.51 2594.67" stroke="#6E6A6E" stroke-width="6.875" stroke-miterlimit="8" fill="none" fill-rule="evenodd"/><path d="M3248.27 2421.68C3249.88 2422.02 3250.81 2422.73 3251.05 2423.8 3263.63 2479.02 3258.35 2530.38 3254.08 2586" stroke="#817D7F" stroke-width="6.875" stroke-miterlimit="8" fill="none" fill-rule="evenodd"/><path d="M3254.08 2586C3251.78 2578.84 3246.97 2575.12 3239.66 2574.86" stroke="#2D313F" stroke-width="6.875" stroke-miterlimit="8" fill="none" fill-rule="evenodd"/><path d="M3239.66 2574.86C3239.56 2574.33 3238.76 2573.68 3237.25 2572.9 3236.46 2572.49 3235.48 2572.79 3235.07 2573.58 3235.01 2573.69 3234.97 2573.8 3234.94 2573.91 3233.37 2579.59 3233.13 2585.38 3234.21 2591.27" stroke="#6E6A6E" stroke-width="6.875" stroke-miterlimit="8" fill="none" fill-rule="evenodd"/><path d="M3234.21 2591.27C3237.81 2596.25 3242.71 2598.68 3248.89 2598.56" stroke="#2D313F" stroke-width="6.875" stroke-miterlimit="8" fill="none" fill-rule="evenodd"/><path d="M3248.89 2598.56 3249.79 2602.07" stroke="#817D7F" stroke-width="6.875" stroke-miterlimit="8" fill="none" fill-rule="evenodd"/><path d="M3222.34 2502.58C3220.02 2502.41 3217.98 2504.16 3217.81 2506.48 3217.81 2506.48 3217.81 2506.48 3217.81 2506.48L3216.78 2520.13C3216.61 2522.46 3218.35 2524.49 3220.68 2524.66 3220.68 2524.66 3220.68 2524.66 3220.68 2524.66L3226.37 2525.09C3228.7 2525.26 3230.73 2523.52 3230.91 2521.19 3230.91 2521.19 3230.91 2521.19 3230.91 2521.19L3231.93 2507.55C3232.11 2505.22 3230.36 2503.19 3228.03 2503.01 3228.03 2503.01 3228.03 2503.01 3228.03 2503.01L3222.34 2502.58" stroke="#3E444C" stroke-width="6.875" stroke-miterlimit="8" fill="none" fill-rule="evenodd"/><path d="M3239.66 2574.86 3238.48 2588.84C3238.38 2589.85 3237.84 2590.46 3236.83 2590.69L3234.21 2591.27" stroke="#474C59" stroke-width="6.875" stroke-miterlimit="8" fill="none" fill-rule="evenodd"/><path d="M3254.08 2586C3253.99 2590.87 3252.27 2595.05 3248.89 2598.56" stroke="#5A5F6A" stroke-width="6.875" stroke-miterlimit="8" fill="none" fill-rule="evenodd"/><path d="M3294.19 2420.96 3292.82 2455.84C3292.77 2457.17 3293.41 2457.87 3294.74 2457.94 3304.66 2458.43 3326.69 2461.69 3334.99 2457.82 3340.08 2455.47 3342.35 2450.85 3341.82 2443.97" stroke="#BDB8B5" stroke-width="6.875" stroke-miterlimit="8" fill="none" fill-rule="evenodd"/><path d="M3341.82 2443.97 3340.62 2498.16" stroke="#C7C668" stroke-width="6.875" stroke-miterlimit="8" fill="none" fill-rule="evenodd"/><path d="M3340.62 2498.15 3341.11 2503.36" stroke="#636E92" stroke-width="6.875" stroke-miterlimit="8" fill="none" fill-rule="evenodd"/><path d="M3341.11 2503.36C3342.11 2517.73 3337.27 2532.17 3338.45 2552.31" stroke="#C7C668" stroke-width="6.875" stroke-miterlimit="8" fill="none" fill-rule="evenodd"/><path d="M3338.45 2552.31C3335.79 2562.12 3334.27 2572.05 3333.88 2582.11" stroke="#747F85" stroke-width="6.875" stroke-miterlimit="8" fill="none" fill-rule="evenodd"/><path d="M3333.88 2582.11 3323.39 2629.69" stroke="#C7C668" stroke-width="6.875" stroke-miterlimit="8" fill="none" fill-rule="evenodd"/><path d="M3345.02 2435.16C3337.66 2431.51 3341.9 2440.9 3341.82 2443.97" stroke="#D6D372" stroke-width="6.875" stroke-miterlimit="8" fill="none" fill-rule="evenodd"/><path d="M3333.88 2582.11 3341.96 2574.47C3342.68 2573.81 3342.76 2573.07 3342.22 2572.25 3338.28 2566.48 3337.03 2559.84 3338.45 2552.31" stroke="#8D9A42" stroke-width="6.875" stroke-miterlimit="8" fill="none" fill-rule="evenodd"/><path d="M3341.11 2503.36 3366.74 2504.43" stroke="#7C894F" stroke-width="6.875" stroke-miterlimit="8" fill="none" fill-rule="evenodd"/><path d="M3366.74 2504.43 3385.19 2510.16" stroke="#A2AC47" stroke-width="6.875" stroke-miterlimit="8" fill="none" fill-rule="evenodd"/><path d="M3385.19 2510.16C3409.57 2514.05 3432.59 2513.84 3454.26 2509.55 3504.44 2499.59 3554.62 2489.62 3604.8 2479.62 3635.66 2473.47 3667.36 2469.97 3698.77 2465.38 3700.2 2465.18 3700.85 2465.8 3700.7 2467.24L3698.51 2487.31C3698.37 2488.56 3697.68 2489.27 3696.43 2489.44L3629.71 2497.94" stroke="#8A9140" stroke-width="6.875" stroke-miterlimit="8" fill="none" fill-rule="evenodd"/><path d="M3629.71 2497.94 3624.72 2486.49C3624.15 2485.17 3623.17 2484.76 3621.8 2485.29 3616.81 2487.21 3621.1 2494.44 3622.2 2497.89" stroke="#A2AC47" stroke-width="6.875" stroke-miterlimit="8" fill="none" fill-rule="evenodd"/><path d="M3622.2 2497.89C3617.98 2500.56 3613.92 2503.38 3609 2504.76 3582.43 2512.27 3556.28 2522.99 3529.58 2528.84 3519.13 2531.14 3508.67 2533.49 3498.21 2535.88" stroke="#8A9140" stroke-width="6.875" stroke-miterlimit="8" fill="none" fill-rule="evenodd"/><path d="M3498.21 2535.88C3495.01 2533.41 3490.22 2532.35 3483.86 2532.71 3464.81 2533.72 3445.62 2533.65 3426.29 2532.51 3425.66 2532.49 3425.15 2532.99 3425.13 2533.62 3425.13 2534.01 3425.33 2534.39 3425.66 2534.6 3430.42 2537.48 3450.53 2536.68 3457.28 2537.26 3461.19 2537.56 3464.56 2540.66 3468.69 2538.23 3469.67 2537.63 3470.75 2537.34 3471.92 2537.35L3498.67 2537.64" stroke="#A2AC47" stroke-width="6.875" stroke-miterlimit="8" fill="none" fill-rule="evenodd"/><path d="M3498.67 2537.64C3505.39 2539.17 3517.14 2535.21 3521.24 2539.63 3522.01 2540.44 3522.95 2540.91 3524.04 2541.03 3544.13 2543.19 3563.67 2547.56 3582.67 2554.12 3593.81 2557.97 3604.41 2557.64 3615.94 2559.79 3617.39 2560.05 3617.97 2560.91 3617.69 2562.36 3616.59 2567.84 3616.85 2573.21 3618.46 2578.47 3619.04 2580.37 3618.37 2581.1 3616.45 2580.64 3585.87 2573.13 3555.73 2564.55 3526.03 2554.92" stroke="#8A9140" stroke-width="6.875" stroke-miterlimit="8" fill="none" fill-rule="evenodd"/><path d="M3526.03 2554.92C3525.96 2552.68 3525.33 2550.56 3524.14 2548.55 3523.66 2547.76 3522.97 2547.33 3522.05 2547.27L3487.61 2545.13C3486.76 2545.1 3486.14 2545.45 3485.74 2546.21 3485.15 2547.27 3464.93 2544.17 3463.07 2544.14 3459.42 2544.11 3459.32 2544.69 3462.78 2545.88 3476.96 2550.68 3491.38 2554.05 3506.04 2555.97" stroke="#B4B357" stroke-width="6.875" stroke-miterlimit="8" fill="none" fill-rule="evenodd"/><path d="M3506.04 2555.97C3542.48 2566.61 3579.52 2578.95 3616.39 2587.32 3617.93 2587.68 3618.7 2588.66 3618.7 2590.24L3619.06 2624.03C3619.12 2627.78 3617.37 2629.07 3613.8 2627.91 3560.62 2610.2 3506.42 2592.9 3454.55 2571.94 3420.06 2558.02 3383.32 2552.69 3346.27 2552.38 3345.12 2552.36 3344.48 2552.93 3344.36 2554.07 3343.67 2559.97 3345.1 2565.23 3348.66 2569.84 3349.51 2570.93 3350.62 2571.51 3352.02 2571.56 3378.62 2572.22 3403.39 2576.62 3426.32 2584.75 3461.12 2597.06 3497.44 2612.02 3535.28 2629.62 3549.37 2636.16 3563.27 2641.54 3576.99 2645.77 3615.07 2657.49 3653.32 2672.23 3691.82 2682.02 3693.01 2682.33 3693.89 2681.92 3694.45 2680.79 3695.9 2677.83 3696.8 2674.37 3697.14 2670.4 3704.35 2589.03 3710.22 2512.04 3712.48 2437.29 3712.53 2435.87 3711.87 2435.3 3710.5 2435.6 3676.45 2442.52 3638.77 2446.16 3608.13 2452.22 3569.85 2459.81 3531.69 2467.82 3493.63 2476.26" stroke="#8A9140" stroke-width="6.875" stroke-miterlimit="8" fill="none" fill-rule="evenodd"/><path d="M3493.63 2476.26C3442.97 2486.11 3391.97 2493.41 3340.62 2498.16" stroke="#7C894F" stroke-width="6.875" stroke-miterlimit="8" fill="none" fill-rule="evenodd"/><path d="M3493.63 2476.26 3494.76 2479.85C3495.17 2481.16 3494.7 2481.95 3493.35 2482.2L3461.6 2488.25" stroke="#26396A" stroke-width="6.875" stroke-miterlimit="8" fill="none" fill-rule="evenodd"/><path d="M3461.6 2488.25C3435.72 2490.85 3410.18 2495.48 3384.99 2502.15 3378.78 2503.79 3373.09 2503.84 3366.74 2504.43" stroke="#3E5471" stroke-width="6.875" stroke-miterlimit="8" fill="none" fill-rule="evenodd"/><path d="M3506.04 2555.97C3512.33 2553.1 3518.99 2552.75 3526.03 2554.92" stroke="#5E6371" stroke-width="6.875" stroke-miterlimit="8" fill="none" fill-rule="evenodd"/><path d="M3498.67 2537.64 3498.21 2535.88" stroke="#4C5C61" stroke-width="6.875" stroke-miterlimit="8" fill="none" fill-rule="evenodd"/><path d="M3622.2 2497.89C3624.89 2499.21 3627.39 2499.22 3629.71 2497.94" stroke="#4C5C61" stroke-width="6.875" stroke-miterlimit="8" fill="none" fill-rule="evenodd"/><path d="M3385.19 2510.16C3394 2507.92 3399.52 2509.75 3408.03 2506.31 3425.39 2499.28 3443.24 2493.26 3461.6 2488.25" stroke="#4C5C61" stroke-width="6.875" stroke-miterlimit="8" fill="none" fill-rule="evenodd"/><path d="M3535.01 2537.45C3544.6 2537.25 3553.99 2538.48 3563.18 2541.15" stroke="#8A9140" stroke-width="6.875" stroke-miterlimit="8" fill="none" fill-rule="evenodd"/><path d="M3563.18 2541.15 3565.54 2542.31" stroke="#4C5C61" stroke-width="6.875" stroke-miterlimit="8" fill="none" fill-rule="evenodd"/><path d="M3565.54 2542.31C3567.01 2545.96 3610.77 2548.92 3618.45 2549.56 3619.98 2549.69 3621.33 2548.56 3621.45 2547.05 3621.45 2547.01 3621.45 2546.98 3621.46 2546.95L3623.01 2519.31C3623.09 2518.17 3623.7 2517.63 3624.85 2517.69L3644.86 2518.71" stroke="#8A9140" stroke-width="6.875" stroke-miterlimit="8" fill="none" fill-rule="evenodd"/><path d="M3644.86 2518.71 3644.77 2522.01" stroke="#4C5C61" stroke-width="6.875" stroke-miterlimit="8" fill="none" fill-rule="evenodd"/><path d="M3644.77 2522.01 3646 2546.32C3646.07 2547.61 3646.75 2548.3 3648.03 2548.39 3659.09 2549.23 3670.03 2548.41 3680.86 2545.93" stroke="#8A9140" stroke-width="6.875" stroke-miterlimit="8" fill="none" fill-rule="evenodd"/><path d="M3680.86 2545.93C3684.89 2547.45 3689.21 2548.01 3693.81 2547.59 3695.06 2547.47 3695.75 2546.78 3695.88 2545.5L3700.05 2503.23C3700.19 2501.86 3699.59 2501.02 3698.26 2500.7 3693.81 2499.58 3689.34 2499.82 3684.84 2501.41" stroke="#4C5C61" stroke-width="6.875" stroke-miterlimit="8" fill="none" fill-rule="evenodd"/><path d="M3684.84 2501.41C3672.51 2501.86 3649.6 2502.77 3640.13 2511.04 3639.27 2511.78 3638.29 2512.18 3637.18 2512.24 3603.05 2514.51 3566.73 2526.75 3533.45 2535.04" stroke="#8A9140" stroke-width="6.875" stroke-miterlimit="8" fill="none" fill-rule="evenodd"/><path d="M3533.45 2535.04C3530.46 2534.12 3527.56 2534.04 3524.75 2534.81 3522.64 2535.4 3522.64 2535.98 3524.73 2536.56 3528.07 2537.51 3531.49 2537.81 3535.01 2537.45" stroke="#707682" stroke-width="6.875" stroke-miterlimit="8" fill="none" fill-rule="evenodd"/><path d="M3533.45 2535.04 3535.01 2537.45" stroke="#C7C668" stroke-width="6.875" stroke-miterlimit="8" fill="none" fill-rule="evenodd"/><path d="M3684.84 2501.41C3686.82 2504.01 3687.15 2506.61 3685.85 2509.2 3685.39 2510.13 3684.67 2510.41 3683.69 2510.02L3681.41 2509.13C3680.31 2508.69 3679.38 2508.92 3678.6 2509.83 3669.25 2521.34 3657.37 2516.27 3644.86 2518.71" stroke="#A2AC47" stroke-width="6.875" stroke-miterlimit="8" fill="none" fill-rule="evenodd"/><path d="M3565.54 2542.31C3566.24 2541.14 3566.57 2539.99 3566.51 2538.86 3566.43 2537.6 3565.83 2537.26 3564.68 2537.84 3563.52 2538.43 3563.02 2539.53 3563.18 2541.15" stroke="#A2AC47" stroke-width="6.875" stroke-miterlimit="8" fill="none" fill-rule="evenodd"/><path d="M3644.77 2522.01C3657.36 2520.86 3671.22 2521.79 3681.99 2514.51 3683.13 2513.74 3684.02 2513.96 3684.67 2515.15L3686.2 2517.98C3686.81 2519.12 3686.93 2520.3 3686.57 2521.52 3684.76 2527.73 3684.13 2534.11 3684.68 2540.65 3684.78 2541.83 3684.45 2542.87 3683.67 2543.78 3682.89 2544.69 3681.96 2545.41 3680.86 2545.93" stroke="#A2AC47" stroke-width="6.875" stroke-miterlimit="8" fill="none" fill-rule="evenodd"/><path d="M3682.35 2637.49C3683.57 2634.27 3685.86 2631.99 3689.24 2630.67 3690.09 2630.31 3690.56 2629.68 3690.65 2628.76L3695.74 2563.27C3695.83 2562.04 3695.25 2561.4 3693.98 2561.36L3684.97 2561.14" stroke="#4C5C61" stroke-width="6.875" stroke-miterlimit="8" fill="none" fill-rule="evenodd"/><path d="M3684.97 2561.14C3672.6 2558.73 3660.11 2557.75 3647.51 2558.18 3646.31 2558.23 3645.55 2558.83 3645.22 2559.98 3643.5 2566.18 3643.17 2572.46 3644.24 2578.83" stroke="#8A9140" stroke-width="6.875" stroke-miterlimit="8" fill="none" fill-rule="evenodd"/><path d="M3644.24 2578.83 3644.55 2588.71C3644.58 2589.88 3645.17 2590.62 3646.29 2590.93 3647.64 2591.3 3648.96 2590.9 3650.24 2589.72" stroke="#4C5C61" stroke-width="6.875" stroke-miterlimit="8" fill="none" fill-rule="evenodd"/><path d="M3650.24 2589.72 3671.61 2592.08" stroke="#8A9140" stroke-width="6.875" stroke-miterlimit="8" fill="none" fill-rule="evenodd"/><path d="M3671.61 2592.08C3674.14 2594.02 3674.01 2595.76 3671.24 2597.29" stroke="#4C5C61" stroke-width="6.875" stroke-miterlimit="8" fill="none" fill-rule="evenodd"/><path d="M3671.24 2597.29 3633.58 2594.86C3632.48 2594.79 3631.8 2595.28 3631.54 2596.34 3629.02 2606.33 3624.88 2624.13 3628.57 2633.9 3629 2635.01 3629.79 2635.74 3630.93 2636.1L3666.39 2646.5C3668.05 2647.01 3668.53 2646.46 3667.81 2644.85L3667.28 2643.64C3666.4 2641.69 3667.03 2640.85 3669.14 2641.11 3674.31 2641.77 3678.72 2640.57 3682.35 2637.49" stroke="#8A9140" stroke-width="6.875" stroke-miterlimit="8" fill="none" fill-rule="evenodd"/><path d="M3671.24 2597.29C3679.4 2597.88 3683.08 2601.96 3682.28 2609.5 3682.1 2611.01 3681.26 2611.67 3679.76 2611.5 3677.55 2611.23 3675.32 2611.12 3673.06 2611.17 3666.78 2611.3 3666.98 2612.37 3673.67 2614.38 3677.2 2615.43 3679.64 2617.6 3681 2620.89 3681.86 2622.99 3681.17 2623.9 3678.91 2623.6 3674.29 2623 3670.96 2624.61 3668.93 2628.42 3668.24 2629.75 3668.56 2630.74 3669.89 2631.38L3682.35 2637.49" stroke="#A2AC47" stroke-width="6.875" stroke-miterlimit="8" fill="none" fill-rule="evenodd"/><path d="M3684.97 2561.14C3686.88 2567.31 3685.19 2571.3 3679.9 2573.09 3678.58 2573.52 3678.2 2574.38 3678.75 2575.66 3681.99 2583.21 3679.61 2588.69 3671.61 2592.08" stroke="#A2AC47" stroke-width="6.875" stroke-miterlimit="8" fill="none" fill-rule="evenodd"/><path d="M3650.24 2589.72 3644.24 2578.83" stroke="#A2AC47" stroke-width="6.875" stroke-miterlimit="8" fill="none" fill-rule="evenodd"/><path d="M3665.38 2658.94 3666.91 2653.88C3667.02 2653.52 3666.81 2653.13 3666.45 2653.02 3666.45 2653.02 3666.45 2653.02 3666.45 2653.02L3662.77 2651.9C3650.37 2648.2 3639.92 2646.52 3639.43 2648.13L3639.26 2648.67C3638.72 2650.27 3648.34 2654.58 3660.74 2658.28 3660.78 2658.29 3660.81 2658.3 3660.84 2658.31L3664.56 2659.4C3664.91 2659.49 3665.27 2659.29 3665.38 2658.94" stroke="#8A9140" stroke-width="6.875" stroke-miterlimit="8" fill="none" fill-rule="evenodd"/><path d="M2610.88 2484.82 2612.74 2458.25 3183.3 2501.8C3185.36 2510.03 3184.8 2518.03 3181.62 2525.8L2610.88 2484.82Z" fill="#3A535F" fill-rule="evenodd"/><path d="M3181.62 2525.8C3184.8 2518.03 3185.36 2510.03 3183.3 2501.8 3184.64 2499.02 3185.13 2496.4 3184.78 2493.94 3184.46 2491.71 3186.02 2489.64 3188.26 2489.33 3188.4 2489.31 3188.54 2489.29 3188.69 2489.29L3207.41 2488.56C3208.71 2502.19 3209.73 2515.98 3210.48 2529.96 3211.02 2540.44 3208.95 2549.8 3207.17 2560.02 3206.98 2561.08 3206.37 2561.48 3205.33 2561.2L3200.9 2560.03C3195.22 2556.48 3190.47 2551.43 3186.66 2544.87L3181.62 2525.8Z" fill="#923527" fill-rule="evenodd"/><path d="M3186.66 2544.87C3190.47 2551.43 3195.22 2556.48 3200.9 2560.03L3201.7 2560.94 3198.41 2575.94C3195.14 2571.83 3193.49 2567.08 3193.48 2561.68 3193.47 2560.44 3192.98 2559.44 3192 2558.68 3187.47 2555.05 3185.69 2550.45 3186.66 2544.87Z" fill="#CCC5BF" fill-rule="evenodd"/><path d="M3198.41 2575.94 3201.7 2560.94C3205.98 2562.83 3209.63 2565.66 3212.65 2569.43 3213.37 2570.33 3213.67 2571.35 3213.57 2572.49L3211.82 2593.15C3211.72 2594.15 3211.18 2594.73 3210.18 2594.89 3208.6 2595.17 3207.04 2595.1 3205.51 2594.67 3205.72 2587.33 3203.35 2581.09 3198.41 2575.94Z" fill="#888588" fill-rule="evenodd"/><path d="M3200.9 2560.03 3205.33 2561.2C3206.37 2561.48 3206.98 2561.08 3207.17 2560.02 3208.95 2549.8 3211.02 2540.44 3210.48 2529.96 3209.73 2515.98 3208.71 2502.19 3207.41 2488.56 3214.75 2472.95 3221.1 2456.34 3226.44 2438.72 3226.79 2437.62 3227.43 2436.73 3228.35 2436.03L3248.27 2421.68C3249.88 2422.02 3250.81 2422.73 3251.05 2423.8 3263.63 2479.02 3258.35 2530.38 3254.08 2586 3251.78 2578.84 3246.97 2575.12 3239.66 2574.87 3239.56 2574.33 3238.76 2573.68 3237.25 2572.9 3236.46 2572.49 3235.48 2572.79 3235.07 2573.58 3235.01 2573.69 3234.97 2573.8 3234.94 2573.92 3233.37 2579.59 3233.13 2585.38 3234.21 2591.27 3237.81 2596.25 3242.71 2598.68 3248.89 2598.56L3249.79 2602.07C3246.87 2610.94 3241.81 2618.42 3234.61 2624.51 3233.63 2625.34 3232.53 2625.56 3231.32 2625.18 3222.35 2622.38 3209.27 2614.81 3211.64 2603.13 3211.89 2601.83 3211.35 2601.12 3210.03 2600.98 3206.2 2600.57 3204.69 2598.47 3205.51 2594.67 3207.04 2595.1 3208.6 2595.17 3210.18 2594.89 3211.18 2594.73 3211.72 2594.15 3211.82 2593.15L3213.57 2572.49C3213.67 2571.35 3213.37 2570.33 3212.65 2569.43 3209.63 2565.66 3205.98 2562.83 3201.7 2560.94L3200.9 2560.03ZM3222.34 2502.59C3220.02 2502.41 3217.98 2504.16 3217.81 2506.48 3217.81 2506.48 3217.81 2506.48 3217.81 2506.48L3216.78 2520.13C3216.61 2522.46 3218.35 2524.49 3220.68 2524.66 3220.68 2524.66 3220.68 2524.66 3220.68 2524.66L3226.37 2525.09C3228.7 2525.26 3230.73 2523.52 3230.91 2521.19 3230.91 2521.19 3230.91 2521.19 3230.91 2521.19L3231.93 2507.55C3232.11 2505.22 3230.36 2503.19 3228.03 2503.01 3228.03 2503.01 3228.03 2503.01 3228.03 2503.01L3222.34 2502.59Z" fill="#544F53" fill-rule="evenodd"/><path d="M3239.66 2574.86 3238.48 2588.84C3238.38 2589.85 3237.84 2590.46 3236.83 2590.69L3234.21 2591.27C3233.13 2585.38 3233.37 2579.59 3234.94 2573.91 3235.17 2573.05 3236.06 2572.54 3236.92 2572.78 3237.03 2572.81 3237.14 2572.85 3237.25 2572.9 3238.76 2573.68 3239.56 2574.33 3239.66 2574.86Z" fill="#888588" fill-rule="evenodd"/><path d="M3234.21 2591.27 3236.83 2590.69C3237.84 2590.46 3238.38 2589.85 3238.48 2588.84L3239.66 2574.87C3246.97 2575.12 3251.78 2578.84 3254.08 2586 3253.99 2590.87 3252.26 2595.05 3248.89 2598.56 3242.71 2598.68 3237.81 2596.25 3234.21 2591.27Z" fill="#06132A" fill-rule="evenodd"/><path d="M3248.27 2421.68C3251.37 2415.83 3256.19 2413.62 3262.73 2415.04 3276.87 2418.14 3287.35 2420.11 3294.19 2420.96L3292.82 2455.84C3292.77 2457.17 3293.41 2457.87 3294.74 2457.94 3304.66 2458.42 3326.69 2461.69 3334.99 2457.82 3340.08 2455.47 3342.35 2450.85 3341.82 2443.97L3340.62 2498.15 3341.11 2503.36C3342.11 2517.73 3337.27 2532.17 3338.45 2552.31 3335.79 2562.12 3334.27 2572.05 3333.88 2582.11L3323.39 2629.69C3300.02 2633.13 3276.98 2630.86 3254.29 2622.89 3253.17 2622.49 3252.69 2621.71 3252.84 2620.55L3254.78 2606.07C3254.97 2604.66 3254.39 2603.73 3253.05 2603.26L3249.79 2602.07 3248.89 2598.56C3252.26 2595.05 3253.99 2590.87 3254.08 2586 3258.35 2530.38 3263.63 2479.02 3251.05 2423.8 3250.81 2422.73 3249.88 2422.02 3248.27 2421.68Z" fill="#ADABAA" fill-rule="evenodd"/><path d="M3294.19 2420.96C3312.69 2419.89 3329.63 2424.62 3345.02 2435.16 3337.66 2431.51 3341.9 2440.91 3341.82 2443.97 3342.35 2450.85 3340.08 2455.47 3334.99 2457.82 3326.69 2461.69 3304.66 2458.43 3294.74 2457.94 3293.41 2457.87 3292.77 2457.17 3292.82 2455.84L3294.19 2420.96Z" fill="#CCC5BF" fill-rule="evenodd"/><path d="M3334.09 2588.1 3342.17 2580.47C3342.88 2579.81 3342.97 2579.07 3342.43 2578.25 3338.49 2572.48 3337.23 2565.83 3338.66 2558.31 3337.48 2538.17 3342.32 2523.72 3341.32 2509.35L3366.95 2510.42 3385.4 2516.16C3409.78 2520.05 3432.8 2519.84 3454.47 2515.54 3504.65 2505.59 3554.83 2495.61 3605.01 2485.62 3635.86 2479.47 3667.57 2475.97 3698.97 2471.37 3700.41 2471.17 3701.06 2471.79 3700.91 2473.23L3698.72 2493.31C3698.58 2494.56 3697.89 2495.27 3696.64 2495.43L3629.92 2503.93 3624.93 2492.49C3624.35 2491.16 3623.38 2490.76 3622.01 2491.28 3617.02 2493.21 3621.3 2500.44 3622.41 2503.89 3618.19 2506.56 3614.13 2509.38 3609.21 2510.75 3582.64 2518.27 3556.49 2528.98 3529.79 2534.84 3519.33 2537.14 3508.88 2539.48 3498.42 2541.88 3495.22 2539.4 3490.43 2538.34 3484.07 2538.7 3465.02 2539.71 3445.83 2539.65 3426.5 2538.5 3425.87 2538.49 3425.36 2538.99 3425.34 2539.61 3425.34 2540.01 3425.54 2540.38 3425.87 2540.59 3430.63 2543.48 3450.74 2542.68 3457.49 2543.25 3461.4 2543.56 3464.76 2546.66 3468.9 2544.22 3469.88 2543.63 3470.96 2543.33 3472.13 2543.35L3498.88 2543.63C3505.6 2545.17 3517.35 2541.2 3521.45 2545.62 3522.22 2546.44 3523.16 2546.9 3524.25 2547.03 3544.34 2549.19 3563.88 2553.55 3582.88 2560.12 3594.02 2563.96 3604.62 2563.64 3616.15 2565.79 3617.6 2566.05 3618.18 2566.91 3617.9 2568.36 3616.8 2573.84 3617.06 2579.21 3618.67 2584.47 3619.25 2586.37 3618.58 2587.09 3616.66 2586.64 3586.07 2579.12 3555.94 2570.55 3526.24 2560.91 3526.17 2558.68 3525.54 2556.56 3524.34 2554.54 3523.87 2553.75 3523.18 2553.33 3522.26 2553.26L3487.81 2551.13C3486.97 2551.09 3486.35 2551.45 3485.95 2552.2 3485.36 2553.27 3465.14 2550.16 3463.28 2550.14 3459.63 2550.11 3459.53 2550.69 3462.99 2551.87 3477.17 2556.68 3491.59 2560.04 3506.25 2561.96 3542.69 2572.61 3579.73 2584.95 3616.6 2593.32 3618.14 2593.68 3618.91 2594.65 3618.91 2596.24L3619.27 2630.03C3619.33 2633.78 3617.58 2635.07 3614 2633.9 3560.83 2616.19 3506.63 2598.9 3454.76 2577.93 3420.27 2564.01 3383.53 2558.69 3346.48 2558.37 3345.33 2558.36 3344.69 2558.92 3344.56 2560.06 3343.88 2565.97 3345.31 2571.22 3348.87 2575.84 3349.72 2576.93 3350.83 2577.5 3352.23 2577.55 3378.83 2578.22 3403.6 2582.62 3426.53 2590.74 3461.33 2603.06 3497.65 2618.01 3535.49 2635.61 3549.58 2642.16 3563.48 2647.54 3577.19 2651.76 3615.28 2663.49 3653.53 2678.22 3692.03 2688.01 3693.22 2688.33 3694.1 2687.92 3694.66 2686.78 3696.11 2683.83 3697.01 2680.37 3697.35 2676.39 3704.56 2595.02 3710.43 2518.04 3712.69 2443.28 3712.74 2441.86 3712.08 2441.3 3710.71 2441.59 3676.66 2448.52 3638.98 2452.15 3608.34 2458.21 3570.06 2465.8 3531.89 2473.82 3493.84 2482.25 3443.18 2492.1 3392.18 2499.4 3340.82 2504.15L3342.03 2449.96C3342.11 2446.9 3337.87 2437.51 3345.23 2441.16 3373.96 2443.56 3402.59 2442.86 3431.11 2439.07 3475.39 2433.2 3519.34 2429.04 3559.5 2414 3588.45 2403.13 3617.66 2380.64 3646.92 2364.8 3702.43 2334.71 3768.06 2318.18 3830.43 2335.98 3976.61 2377.69 4040.32 2538.97 3978.39 2673.65 3958.75 2716.31 3929.76 2750.15 3891.41 2775.15 3830.03 2815.17 3746.22 2815.27 3679.7 2787.94 3628.82 2767.02 3586.93 2721.05 3537.08 2693.27 3470.88 2656.35 3409.57 2647.55 3323.6 2635.68L3334.09 2588.1Z" fill="#E0E125" fill-rule="evenodd"/><path d="M3333.88 2582.11C3334.27 2572.05 3335.79 2562.12 3338.45 2552.31 3337.03 2559.84 3338.28 2566.48 3342.22 2572.25 3342.76 2573.07 3342.68 2573.81 3341.96 2574.47L3333.88 2582.11Z" fill="#3A535F" fill-rule="evenodd"/><path d="M3340.61 2498.15C3391.97 2493.41 3442.97 2486.11 3493.63 2476.26L3494.75 2479.85C3495.17 2481.16 3494.7 2481.95 3493.35 2482.2L3461.6 2488.25C3435.72 2490.85 3410.18 2495.48 3384.99 2502.15 3378.78 2503.79 3373.09 2503.84 3366.74 2504.43L3341.11 2503.36 3340.61 2498.15Z" fill="#183079" fill-rule="evenodd"/><path d="M3506.04 2555.97C3512.33 2553.1 3518.99 2552.75 3526.03 2554.92 3555.73 2564.55 3585.87 2573.13 3616.45 2580.64 3618.37 2581.1 3619.04 2580.37 3618.46 2578.47 3616.85 2573.21 3616.59 2567.84 3617.69 2562.36 3617.97 2560.91 3617.39 2560.05 3615.94 2559.79 3604.41 2557.64 3593.81 2557.97 3582.67 2554.12 3563.67 2547.56 3544.13 2543.19 3524.04 2541.03 3522.95 2540.91 3522.01 2540.44 3521.24 2539.63 3517.14 2535.21 3505.39 2539.17 3498.67 2537.64L3498.21 2535.88C3508.67 2533.49 3519.13 2531.14 3529.58 2528.84 3556.28 2522.99 3582.43 2512.27 3609 2504.76 3613.92 2503.38 3617.98 2500.56 3622.2 2497.89 3624.89 2499.21 3627.39 2499.22 3629.71 2497.94L3696.43 2489.44C3697.68 2489.27 3698.37 2488.56 3698.51 2487.31L3700.7 2467.24C3700.85 2465.8 3700.2 2465.18 3698.77 2465.38 3667.36 2469.97 3635.66 2473.47 3604.8 2479.62 3554.62 2489.62 3504.44 2499.59 3454.26 2509.55 3432.59 2513.84 3409.57 2514.05 3385.19 2510.16 3394 2507.92 3399.52 2509.75 3408.03 2506.32 3425.38 2499.28 3443.24 2493.26 3461.6 2488.25L3493.35 2482.2C3494.7 2481.95 3495.17 2481.16 3494.76 2479.85L3493.63 2476.26C3531.69 2467.82 3569.85 2459.81 3608.13 2452.22 3638.77 2446.16 3676.45 2442.52 3710.5 2435.6 3711.87 2435.3 3712.53 2435.87 3712.48 2437.29 3710.22 2512.04 3704.35 2589.03 3697.14 2670.4 3696.8 2674.37 3695.9 2677.83 3694.45 2680.79 3693.89 2681.92 3693.01 2682.33 3691.82 2682.02 3653.32 2672.23 3615.07 2657.49 3576.99 2645.77 3563.27 2641.54 3549.37 2636.16 3535.28 2629.62 3497.44 2612.02 3461.12 2597.06 3426.32 2584.75 3403.39 2576.62 3378.62 2572.22 3352.02 2571.56 3350.62 2571.51 3349.51 2570.93 3348.66 2569.84 3345.1 2565.23 3343.67 2559.97 3344.36 2554.07 3344.48 2552.93 3345.12 2552.36 3346.27 2552.38 3383.32 2552.69 3420.06 2558.02 3454.55 2571.94 3506.42 2592.9 3560.62 2610.2 3613.8 2627.91 3617.37 2629.07 3619.12 2627.78 3619.06 2624.04L3618.7 2590.24C3618.7 2588.66 3617.93 2587.68 3616.39 2587.32 3579.52 2578.95 3542.48 2566.61 3506.04 2555.97ZM3535.01 2537.45C3544.6 2537.25 3553.99 2538.48 3563.18 2541.15L3565.54 2542.31C3567.01 2545.96 3610.77 2548.92 3618.45 2549.56 3619.98 2549.69 3621.33 2548.56 3621.45 2547.05 3621.45 2547.01 3621.45 2546.98 3621.46 2546.95L3623.01 2519.31C3623.09 2518.17 3623.7 2517.63 3624.85 2517.69L3644.86 2518.71 3644.77 2522.01 3646 2546.32C3646.07 2547.61 3646.75 2548.3 3648.03 2548.39 3659.09 2549.23 3670.03 2548.41 3680.86 2545.93 3684.89 2547.45 3689.21 2548.01 3693.81 2547.59 3695.06 2547.47 3695.75 2546.78 3695.88 2545.5L3700.05 2503.23C3700.19 2501.87 3699.59 2501.02 3698.26 2500.7 3693.81 2499.58 3689.34 2499.82 3684.84 2501.41 3672.51 2501.86 3649.6 2502.77 3640.13 2511.04 3639.27 2511.78 3638.29 2512.18 3637.18 2512.24 3603.05 2514.51 3566.73 2526.75 3533.45 2535.04 3530.46 2534.12 3527.56 2534.04 3524.75 2534.81 3522.64 2535.4 3522.64 2535.98 3524.73 2536.56 3528.07 2537.51 3531.49 2537.81 3535.01 2537.45ZM3682.35 2637.49C3683.57 2634.27 3685.86 2631.99 3689.24 2630.67 3690.09 2630.31 3690.56 2629.68 3690.65 2628.77L3695.74 2563.27C3695.83 2562.04 3695.25 2561.4 3693.98 2561.36L3684.97 2561.14C3672.6 2558.73 3660.11 2557.75 3647.51 2558.18 3646.31 2558.23 3645.55 2558.83 3645.22 2559.98 3643.5 2566.18 3643.17 2572.46 3644.24 2578.83L3644.55 2588.71C3644.58 2589.88 3645.17 2590.62 3646.29 2590.93 3647.64 2591.3 3648.96 2590.9 3650.24 2589.72L3671.61 2592.08C3674.14 2594.02 3674.01 2595.76 3671.24 2597.29L3633.58 2594.86C3632.48 2594.79 3631.8 2595.28 3631.54 2596.34 3629.02 2606.33 3624.88 2624.13 3628.57 2633.9 3629 2635.01 3629.79 2635.74 3630.93 2636.1L3666.39 2646.5C3668.05 2647.01 3668.53 2646.46 3667.81 2644.85L3667.28 2643.64C3666.4 2641.69 3667.03 2640.85 3669.14 2641.11 3674.31 2641.77 3678.72 2640.57 3682.35 2637.49ZM3665.38 2658.94 3666.91 2653.88C3667.02 2653.52 3666.81 2653.13 3666.45 2653.02 3666.45 2653.02 3666.45 2653.02 3666.45 2653.02L3662.77 2651.9C3650.37 2648.21 3639.92 2646.52 3639.43 2648.13L3639.26 2648.67C3638.72 2650.27 3648.34 2654.58 3660.74 2658.29 3660.78 2658.3 3660.81 2658.3 3660.84 2658.31L3664.56 2659.4C3664.91 2659.49 3665.27 2659.29 3665.38 2658.94Z" fill="#33415A" fill-rule="evenodd"/><path d="M3366.74 2504.43C3373.09 2503.84 3378.78 2503.79 3384.99 2502.15 3410.18 2495.48 3435.72 2490.85 3461.6 2488.25 3443.24 2493.26 3425.38 2499.28 3408.03 2506.31 3399.52 2509.75 3394 2507.92 3385.19 2510.16L3366.74 2504.43Z" fill="#647768" fill-rule="evenodd"/><path d="M3498.21 2535.88 3498.67 2537.64 3471.92 2537.35C3470.75 2537.34 3469.67 2537.63 3468.69 2538.23 3464.56 2540.66 3461.19 2537.56 3457.28 2537.26 3450.53 2536.68 3430.42 2537.48 3425.66 2534.6 3425.13 2534.26 3424.98 2533.56 3425.31 2533.03 3425.52 2532.7 3425.89 2532.5 3426.29 2532.51 3445.62 2533.65 3464.81 2533.72 3483.86 2532.71 3490.22 2532.35 3495.01 2533.41 3498.21 2535.88Z" fill="#647768" fill-rule="evenodd"/><path d="M3526.03 2554.92C3518.99 2552.75 3512.33 2553.1 3506.04 2555.97 3491.38 2554.05 3476.96 2550.68 3462.78 2545.88 3459.32 2544.69 3459.42 2544.11 3463.07 2544.14 3464.93 2544.17 3485.15 2547.27 3485.74 2546.21 3486.14 2545.45 3486.76 2545.1 3487.61 2545.13L3522.05 2547.27C3522.97 2547.33 3523.66 2547.76 3524.14 2548.55 3525.33 2550.56 3525.96 2552.68 3526.03 2554.92Z" fill="#888588" fill-rule="evenodd"/><path d="M3629.71 2497.94C3627.39 2499.22 3624.89 2499.21 3622.2 2497.89 3621.1 2494.44 3616.81 2487.21 3621.8 2485.29 3623.17 2484.76 3624.15 2485.17 3624.72 2486.49L3629.71 2497.94Z" fill="#647768" fill-rule="evenodd"/><path d="M3217.88 2506.46C3218.05 2504.13 3218.19 2502.24 3218.19 2502.24L3232.32 2503.3C3232.32 2503.3 3232.17 2505.19 3232 2507.52L3230.97 2521.16C3230.8 2523.49 3230.66 2525.38 3230.66 2525.38L3216.53 2524.32C3216.53 2524.32 3216.68 2522.43 3216.85 2520.1Z" fill="#283844" fill-rule="evenodd"/><path d="M3533.45 2535.04 3535.01 2537.45C3531.49 2537.81 3528.07 2537.51 3524.73 2536.56 3522.64 2535.98 3522.64 2535.4 3524.75 2534.81 3527.56 2534.04 3530.46 2534.12 3533.45 2535.04Z" fill="#ADABAA" fill-rule="evenodd"/><path d="M3533.45 2535.04C3566.73 2526.75 3603.05 2514.51 3637.18 2512.24 3638.29 2512.18 3639.27 2511.78 3640.13 2511.04 3649.6 2502.77 3672.51 2501.86 3684.84 2501.41 3686.82 2504.01 3687.15 2506.6 3685.85 2509.2 3685.39 2510.13 3684.67 2510.41 3683.69 2510.01L3681.4 2509.13C3680.31 2508.69 3679.38 2508.92 3678.6 2509.83 3669.25 2521.34 3657.37 2516.27 3644.86 2518.71L3624.85 2517.69C3623.7 2517.63 3623.09 2518.17 3623.01 2519.31L3621.46 2546.95C3621.39 2548.46 3620.09 2549.64 3618.55 2549.57 3618.52 2549.57 3618.48 2549.56 3618.45 2549.56 3610.77 2548.92 3567.01 2545.96 3565.54 2542.31 3566.24 2541.14 3566.57 2539.99 3566.51 2538.86 3566.43 2537.6 3565.83 2537.26 3564.68 2537.84 3563.52 2538.43 3563.02 2539.53 3563.18 2541.15 3553.99 2538.48 3544.6 2537.25 3535.01 2537.45L3533.45 2535.04Z" fill="#E0E125" fill-rule="evenodd"/><path d="M3563.18 2541.15C3563.02 2539.53 3563.52 2538.43 3564.68 2537.84 3565.83 2537.26 3566.43 2537.6 3566.51 2538.86 3566.57 2539.99 3566.24 2541.14 3565.54 2542.31L3563.18 2541.15Z" fill="#647768" fill-rule="evenodd"/><path d="M3671.24 2597.29C3679.4 2597.88 3683.08 2601.96 3682.28 2609.5 3682.1 2611.01 3681.26 2611.67 3679.76 2611.5 3677.55 2611.23 3675.32 2611.12 3673.06 2611.17 3666.78 2611.3 3666.98 2612.37 3673.67 2614.38 3677.2 2615.43 3679.64 2617.6 3681 2620.89 3681.86 2622.99 3681.17 2623.9 3678.91 2623.6 3674.29 2623 3670.96 2624.61 3668.93 2628.42 3668.24 2629.75 3668.56 2630.74 3669.89 2631.38L3682.35 2637.49C3678.72 2640.57 3674.31 2641.77 3669.14 2641.11 3667.03 2640.85 3666.4 2641.69 3667.28 2643.64L3667.81 2644.85C3668.53 2646.46 3668.05 2647.01 3666.39 2646.5L3630.93 2636.1C3629.79 2635.74 3629 2635.01 3628.57 2633.9 3624.88 2624.13 3629.02 2606.33 3631.54 2596.34 3631.8 2595.28 3632.48 2594.79 3633.58 2594.86L3671.24 2597.29Z" fill="#E0E125" fill-rule="evenodd"/><path d="M3644.77 2522.01C3657.36 2520.86 3671.22 2521.79 3681.99 2514.51 3683.13 2513.74 3684.02 2513.96 3684.67 2515.15L3686.2 2517.98C3686.81 2519.12 3686.93 2520.3 3686.57 2521.52 3684.76 2527.73 3684.13 2534.11 3684.68 2540.65 3684.78 2541.83 3684.45 2542.87 3683.67 2543.78 3682.89 2544.69 3681.96 2545.41 3680.86 2545.93 3670.03 2548.41 3659.09 2549.23 3648.03 2548.39 3646.75 2548.3 3646.07 2547.61 3646 2546.32L3644.77 2522.01Z" fill="#E0E125" fill-rule="evenodd"/><path d="M3644.77 2522.01 3644.86 2518.71C3657.37 2516.27 3669.25 2521.34 3678.6 2509.83 3679.38 2508.92 3680.31 2508.69 3681.4 2509.13L3683.69 2510.02C3684.67 2510.41 3685.39 2510.13 3685.85 2509.2 3687.15 2506.6 3686.82 2504.01 3684.84 2501.41 3689.34 2499.82 3693.81 2499.58 3698.26 2500.7 3699.59 2501.02 3700.19 2501.86 3700.05 2503.23L3695.88 2545.5C3695.75 2546.78 3695.06 2547.47 3693.81 2547.59 3689.21 2548.01 3684.89 2547.45 3680.86 2545.93 3681.96 2545.41 3682.89 2544.69 3683.67 2543.78 3684.45 2542.87 3684.78 2541.83 3684.68 2540.65 3684.13 2534.11 3684.76 2527.73 3686.57 2521.52 3686.93 2520.3 3686.81 2519.12 3686.2 2517.98L3684.67 2515.15C3684.02 2513.96 3683.13 2513.74 3681.99 2514.51 3671.22 2521.79 3657.36 2520.85 3644.77 2522.01Z" fill="#647768" fill-rule="evenodd"/><path d="M3684.97 2561.14C3686.88 2567.31 3685.19 2571.3 3679.9 2573.09 3678.58 2573.52 3678.2 2574.38 3678.75 2575.66 3681.99 2583.21 3679.61 2588.69 3671.61 2592.08L3650.24 2589.72 3644.24 2578.83C3643.17 2572.46 3643.5 2566.18 3645.22 2559.98 3645.55 2558.83 3646.31 2558.23 3647.51 2558.17 3660.11 2557.75 3672.6 2558.73 3684.97 2561.14Z" fill="#E0E125" fill-rule="evenodd"/><path d="M3665.38 2658.94C3665.27 2659.29 3664.91 2659.49 3664.56 2659.4L3660.84 2658.31C3648.43 2654.62 3638.77 2650.3 3639.25 2648.69 3639.25 2648.68 3639.26 2648.68 3639.26 2648.67L3639.43 2648.13C3639.92 2646.52 3650.37 2648.21 3662.77 2651.9L3666.45 2653.02C3666.81 2653.13 3667.02 2653.52 3666.91 2653.88 3666.91 2653.88 3666.91 2653.88 3666.91 2653.88L3665.38 2658.94Z" fill="#E0E125" fill-rule="evenodd"/><path d="M3644.24 2578.83 3650.24 2589.72C3648.96 2590.9 3647.64 2591.3 3646.29 2590.93 3645.17 2590.62 3644.58 2589.88 3644.55 2588.71L3644.24 2578.83Z" fill="#647768" fill-rule="evenodd"/><path d="M3671.24 2597.29C3674.01 2595.76 3674.14 2594.02 3671.61 2592.08 3679.61 2588.69 3681.99 2583.21 3678.75 2575.66 3678.2 2574.38 3678.58 2573.52 3679.9 2573.09 3685.19 2571.3 3686.88 2567.31 3684.97 2561.14L3693.98 2561.36C3695.25 2561.4 3695.83 2562.04 3695.75 2563.27L3690.65 2628.76C3690.56 2629.68 3690.09 2630.31 3689.24 2630.67 3685.86 2631.99 3683.57 2634.27 3682.35 2637.49L3669.89 2631.38C3668.56 2630.74 3668.24 2629.75 3668.93 2628.42 3670.96 2624.61 3674.29 2623 3678.91 2623.6 3681.17 2623.9 3681.86 2622.99 3681 2620.89 3679.64 2617.6 3677.2 2615.43 3673.67 2614.38 3666.98 2612.37 3666.78 2611.3 3673.06 2611.17 3675.32 2611.12 3677.55 2611.23 3679.76 2611.5 3681.26 2611.67 3682.1 2611.01 3682.28 2609.5 3683.08 2601.96 3679.4 2597.88 3671.24 2597.29Z" fill="#647768" fill-rule="evenodd"/><path d="M2615.97 2398.58 2758.82 2408.57 2748.83 2551.42 2605.99 2541.43Z" fill="#FFFFFF" fill-rule="evenodd"/></g></svg>